<svg width="15" height="18" viewBox="0 0 15 18" fill="none" xmlns="http://www.w3.org/2000/svg">
<path d="M12.3288 9.29653C12.311 7.17219 14.0674 6.13969 14.1446 6.09221C13.1477 4.64434 11.6048 4.44259 11.0649 4.42478C9.77126 4.2883 8.51327 5.20213 7.85461 5.20213C7.18408 5.20213 6.16344 4.44259 5.0716 4.46039C3.66527 4.48412 2.342 5.29707 1.624 6.56693C0.134586 9.14818 1.24423 12.9459 2.6743 15.0346C3.3923 16.0553 4.22305 17.2005 5.32083 17.159C6.38893 17.1174 6.79244 16.4766 8.0801 16.4766C9.36182 16.4766 9.73566 17.159 10.8512 17.1352C12.0024 17.1174 12.7204 16.1087 13.4147 15.0762C14.2395 13.9072 14.5718 12.7501 14.5837 12.6907C14.554 12.6789 12.3525 11.8362 12.3288 9.29653Z" fill="#2948FF"/>
<path d="M10.2226 3.0541C10.7982 2.3361 11.1898 1.35701 11.083 0.360107C10.2523 0.395711 9.20792 0.935697 8.60859 1.64183C8.08047 2.26489 7.60576 3.27959 7.72444 4.23495C8.662 4.30616 9.62329 3.76024 10.2226 3.0541Z" fill="#2948FF"/>
</svg>
