<svg width="18" height="13" viewBox="0 0 18 13" fill="none" xmlns="http://www.w3.org/2000/svg">
<path d="M6.86869 5.392C7.92469 6.096 8.45269 7.088 8.45269 8.368C8.45269 9.616 8.06869 10.608 7.30069 11.344C6.56469 12.08 5.62069 12.448 4.46869 12.448C3.34869 12.448 2.40469 12.096 1.63669 11.392C0.900688 10.688 0.532688 9.776 0.532688 8.656C0.532688 7.536 0.884688 6.432 1.58869 5.344L5.09269 0.256H9.02869L6.86869 5.392ZM15.7487 5.392C16.8047 6.096 17.3327 7.088 17.3327 8.368C17.3327 9.616 16.9487 10.608 16.1807 11.344C15.4447 12.08 14.5007 12.448 13.3487 12.448C12.2287 12.448 11.2847 12.096 10.5167 11.392C9.78069 10.688 9.41269 9.776 9.41269 8.656C9.41269 7.536 9.76469 6.432 10.4687 5.344L13.9727 0.256H17.9087L15.7487 5.392Z" fill="white"/>
</svg>
